<?xml version="1.0" encoding="UTF-8"?>
<svg width="38px" height="45px" viewBox="0 0 38 45" version="1.1" xmlns="http://www.w3.org/2000/svg" xmlns:xlink="http://www.w3.org/1999/xlink">
    <!-- Generator: Sketch 51.3 (57544) - http://www.bohemiancoding.com/sketch -->
    <title>Dollar_bag</title>
    <desc>Created with Sketch.</desc>
    <defs></defs>
    <g id="Welcome" stroke="none" stroke-width="1" fill="none" fill-rule="evenodd">
        <g id="Home-Page" transform="translate(-782.000000, -925.000000)" fill="#0018C0">
            <g id="Header-24">
                <g id="What-is-Meepro" transform="translate(215.000000, 843.000000)">
                    <g id="Dollar_bag" transform="translate(567.000000, 82.000000)">
                        <path d="M18.89,27.21 C18.1791225,27.2104042 17.5377984,26.7831181 17.2643839,26.1269234 C16.9909695,25.4707286 17.1391543,24.7144805 17.64,24.21 C18.3381592,23.5484023 19.4318408,23.5484023 20.13,24.21 C20.464013,24.54003 20.6513854,24.9904443 20.65,25.46 C20.65,26.2884271 21.3215729,26.96 22.15,26.96 C22.9784271,26.96 23.65,26.2884271 23.65,25.46 C23.6515294,23.237818 22.1090835,21.3128788 19.94,20.83 L19.89,19.9 C19.89,19.0715729 19.2184271,18.4 18.39,18.4 C17.5615729,18.4 16.89,19.0715729 16.89,19.9 L16.89,21.16 C14.8539271,22.090697 13.7440837,24.3167208 14.2261529,26.5029045 C14.7082221,28.6890882 16.651329,30.2419146 18.89,30.23 C19.9612693,30.2354011 20.8601668,31.0391491 20.9848937,32.1031464 C21.1096207,33.1671438 20.4209772,34.156991 19.38,34.41 L18.43,34.41 C17.3754183,34.1857319 16.6595508,33.2024923 16.77,32.13 C16.851434,31.3075204 16.2522073,30.5741386 15.43,30.49 C15.0338732,30.4453471 14.6364828,30.5623804 14.3277882,30.8146065 C14.0190936,31.0668326 13.8252,31.4329216 13.79,31.83 C13.5592373,34.0685534 14.822983,36.1937592 16.9,37.06 C16.9670391,37.7628079 17.5181067,38.3220925 18.2198454,38.3995258 C18.9215842,38.476959 19.5813372,38.0512822 19.8,37.38 C22.4144457,36.91243 24.2372902,34.523338 23.9977728,31.8782332 C23.7582555,29.2331284 21.5359094,27.2103332 18.88,27.22 L18.89,27.21 Z" id="Shape"></path>
                        <path d="M37.69,36.84 C37.29,32.35 35.34,17.93 26.69,12.51 L26.69,12.45 L29.69,4.45 C30.0341404,3.52893319 29.9050833,2.49769149 29.3445734,1.68983918 C28.7840635,0.881986879 27.8632582,0.400081642 26.88,0.4 L10.88,0.4 C9.89674182,0.400081642 8.97593645,0.881986879 8.41542658,1.68983918 C7.85491671,2.49769149 7.72585963,3.52893319 8.07,4.45 L11.07,12.45 L11.07,12.51 C2.4,17.93 0.45,32.35 0.07,36.84 C-0.0975756672,38.7728308 0.551548225,40.6875649 1.86,42.12 C3.18876237,43.5752511 5.06937673,44.4030118 7.04,44.4 L30.69,44.4 C32.6606233,44.4030118 34.5412376,43.5752511 35.87,42.12 C37.1893138,40.6925363 37.8495198,38.7772132 37.69,36.84 Z M10.89,3.4 L26.89,3.4 L23.89,11.4 L13.89,11.4 L10.89,3.4 Z M30.71,41.4 L7.07,41.4 C5.95504994,41.4031406 4.88938588,40.9407865 4.12998599,40.1244316 C3.37058609,39.3080768 2.98637399,38.2118139 3.07,37.1 C3.81,28.77 6.84,17.63 13.88,14.4 L23.88,14.4 C30.88,17.64 33.96,28.77 34.69,37.1 C34.7733633,38.2083441 34.391807,39.3014005 33.6368134,40.1170971 C32.8818199,40.9327936 31.8214721,41.3975733 30.71,41.4 Z" id="Shape"></path>
                    </g>
                </g>
            </g>
        </g>
    </g>
</svg>