<?xml version="1.0" encoding="UTF-8"?>
<svg width="35px" height="42px" viewBox="0 0 35 42" version="1.1" xmlns="http://www.w3.org/2000/svg" xmlns:xlink="http://www.w3.org/1999/xlink">
    <!-- Generator: Sketch 51.3 (57544) - http://www.bohemiancoding.com/sketch -->
    <title>Locked</title>
    <desc>Created with Sketch.</desc>
    <defs></defs>
    <g id="Welcome" stroke="none" stroke-width="1" fill="none" fill-rule="evenodd">
        <g id="Home-Page" transform="translate(-1183.000000, -925.000000)" fill="#0018C0">
            <g id="Header-24">
                <g id="What-is-Meepro" transform="translate(215.000000, 843.000000)">
                    <g id="Locked" transform="translate(968.000000, 82.000000)">
                        <path d="M31.72,15.4 L28.72,15.4 L28.72,11.4 C28.72,5.32486775 23.7951322,0.4 17.72,0.4 C11.6448678,0.4 6.72,5.32486775 6.72,11.4 L6.72,15.4 L3.72,15.4 C2.06314575,15.4 0.72,16.7431458 0.72,18.4 L0.72,38.4 C0.72,40.0568542 2.06314575,41.4 3.72,41.4 L31.72,41.4 C33.3768542,41.4 34.72,40.0568542 34.72,38.4 L34.72,18.4 C34.72,16.7431458 33.3768542,15.4 31.72,15.4 L31.72,15.4 Z M9.72,11.4 C9.72,6.981722 13.301722,3.4 17.72,3.4 C22.138278,3.4 25.72,6.981722 25.72,11.4 L25.72,15.4 L9.72,15.4 L9.72,11.4 Z M31.72,38.4 L3.72,38.4 L3.72,18.4 L31.72,18.4 L31.72,38.4 Z" id="Shape"></path>
                        <path d="M18.22,33.4 C20.7052814,33.4 22.72,31.3852814 22.72,28.9 C22.72,26.4147186 20.7052814,24.4 18.22,24.4 C15.7347186,24.4 13.72,26.4147186 13.72,28.9 C13.7254995,31.3829999 15.7370001,33.3945005 18.22,33.4 Z M18.22,27.4 C19.0484271,27.4 19.72,28.0715729 19.72,28.9 C19.72,29.7284271 19.0484271,30.4 18.22,30.4 C17.3915729,30.4 16.72,29.7284271 16.72,28.9 C16.72,28.0715729 17.3915729,27.4 18.22,27.4 Z" id="Shape"></path>
                    </g>
                </g>
            </g>
        </g>
    </g>
</svg>