<?xml version="1.0" encoding="UTF-8"?>
<svg width="163px" height="169px" viewBox="0 0 163 169" version="1.1" xmlns="http://www.w3.org/2000/svg" xmlns:xlink="http://www.w3.org/1999/xlink">
    <!-- Generator: Sketch 51.3 (57544) - http://www.bohemiancoding.com/sketch -->
    <title>Search</title>
    <desc>Created with Sketch.</desc>
    <defs></defs>
    <g id="Welcome" stroke="none" stroke-width="1" fill="none" fill-rule="evenodd">
        <g id="Home-Page" transform="translate(-389.000000, -2365.000000)" fill="#000000">
            <g id="Search" transform="translate(389.000000, 2365.000000)">
                <path d="M161.316297,158.40091 L122.672477,120.537965 C149.749454,93.6988263 150.574531,50.6155365 124.544434,22.7893922 C98.5143378,-5.03675214 54.8587767,-7.73920258 25.4974761,16.657997 C-3.86382454,41.0551966 -8.51998317,83.9013274 14.9334531,113.868497 C38.3868894,143.835667 81.6338399,150.298166 113.053344,128.530796 L152.449966,167.341344 C154.921747,169.61031 158.773582,169.54336 161.162573,167.189907 C163.551565,164.836455 163.619526,161.041921 161.316297,158.606911 L161.316297,158.40091 Z M13.6416981,71.097776 C13.6416981,39.2418697 39.8559825,13.4175552 72.1929411,13.4175552 C104.5299,13.4175552 130.744184,39.2418697 130.744184,71.097776 C130.744184,102.953682 104.5299,128.777997 72.1929411,128.777997 C39.8559825,128.777997 13.6416981,102.953682 13.6416981,71.097776 Z" id="Shape"></path>
            </g>
        </g>
    </g>
</svg>