<?xml version="1.0" encoding="UTF-8"?>
<svg width="38px" height="39px" viewBox="0 0 38 39" version="1.1" xmlns="http://www.w3.org/2000/svg" xmlns:xlink="http://www.w3.org/1999/xlink">
    <!-- Generator: Sketch 51.3 (57544) - http://www.bohemiancoding.com/sketch -->
    <title>Share-2</title>
    <desc>Created with Sketch.</desc>
    <defs></defs>
    <g id="Welcome" stroke="none" stroke-width="1" fill="none" fill-rule="evenodd">
        <g id="Home-Page" transform="translate(-375.000000, -925.000000)" fill="#0018C0">
            <g id="Header-24">
                <g id="What-is-Meepro" transform="translate(215.000000, 843.000000)">
                    <g id="Share-2" transform="translate(160.000000, 82.000000)">
                        <path d="M30.9848828,24.98989 C28.8728294,24.9911761 26.8743473,25.94599 25.546771,27.588054 L13.7708597,21.7022133 C14.0827906,20.5035451 14.0620547,19.2425627 13.7108805,18.0547909 L25.7067154,11.5693739 C28.0423378,14.2717019 32.0392917,14.781361 34.9787368,12.7516668 C37.9181819,10.7219725 38.8561547,6.8047341 37.1546197,3.66456717 C35.4530848,0.524400251 31.6584672,-0.830272571 28.3519727,0.522035236 C25.0454781,1.87434304 23.2889429,5.49935591 24.2772118,8.93123821 L12.2813768,15.4166552 C10.352868,13.1963531 7.24119424,12.4187138 4.49434514,13.4705957 C1.74749604,14.5224776 -0.0480391324,17.1792898 0.000979084213,20.1193263 C0.0499973008,23.0593628 1.93310286,25.6548863 4.71349194,26.6146807 C7.49388102,27.574475 10.5779031,26.6936112 12.4313248,24.4102996 L24.2072361,30.2961403 C23.4770971,33.1934272 24.6684269,36.2344426 27.1725965,37.8655865 C29.6767661,39.4967303 32.9408724,39.3578574 35.297342,37.5199154 C37.6538117,35.6819735 38.5823527,32.5507671 37.6085902,29.7259735 C36.6348277,26.9011799 33.9737617,25.0064936 30.9848828,25.0098759 L30.9848828,24.98989 Z M30.9848828,3.0054258 C33.1932551,3.0054258 34.9834945,4.79502215 34.9834945,7.00260112 C34.9834945,9.21018009 33.1932551,10.9997764 30.9848828,10.9997764 C28.7765106,10.9997764 26.9862712,9.21018009 26.9862712,7.00260112 C26.9862712,4.79502215 28.7765106,3.0054258 30.9848828,3.0054258 Z M6.99321292,23.9905962 C4.78484068,23.9905962 2.99460126,22.2009999 2.99460126,19.9934209 C2.99460126,17.7858419 4.78484068,15.9962456 6.99321292,15.9962456 C9.20158515,15.9962456 10.9918246,17.7858419 10.9918246,19.9934209 C10.9918246,22.2009999 9.20158515,23.9905962 6.99321292,23.9905962 Z M30.9848828,35.9821222 C28.7765106,35.9821222 26.9862712,34.1925258 26.9862712,31.9849468 C26.9862712,29.7773679 28.7765106,27.9877715 30.9848828,27.9877715 C33.1932551,27.9877715 34.9834945,29.7773679 34.9834945,31.9849468 C34.9834945,34.1925258 33.1932551,35.9821222 30.9848828,35.9821222 Z" id="Shape"></path>
                    </g>
                </g>
            </g>
        </g>
    </g>
</svg>