<?xml version="1.0" encoding="UTF-8"?>
<svg width="36px" height="32px" viewBox="0 0 36 32" version="1.1" xmlns="http://www.w3.org/2000/svg" xmlns:xlink="http://www.w3.org/1999/xlink">
    <!-- Generator: Sketch 51.3 (57544) - http://www.bohemiancoding.com/sketch -->
    <title>User</title>
    <desc>Created with Sketch.</desc>
    <defs></defs>
    <g id="Welcome" stroke="none" stroke-width="1" fill="none" fill-rule="evenodd">
        <g id="Pro-View-Page" transform="translate(-1422.000000, -85.000000)" fill="#0018C0">
            <g id="Navigation-Menu">
                <g id="User" transform="translate(1422.000000, 85.000000)">
                    <path d="M17.7287348,19.6966307 C22.5382676,19.6966307 26.4574695,15.2813026 26.4574695,9.84831535 C26.4574695,4.41532805 22.5382676,0 17.7287348,0 C12.9192019,0 9,4.41532805 9,9.84831535 C9,15.2813026 12.9279306,19.6966307 17.7287348,19.6966307 Z M17.7287348,2.46207884 C21.1067551,2.46207884 23.8388491,5.74485062 23.8388491,9.84831535 C23.8388491,13.9517801 21.1067551,17.2345519 17.7287348,17.2345519 C14.3507144,17.2345519 11.6186204,13.9517801 11.6186204,9.84831535 C11.6186204,5.74485062 14.3507144,2.46207884 17.7287348,2.46207884 Z" id="Shape"></path>
                    <path d="M25.8806986,19.0062324 C25.1575865,18.9382441 24.5127686,19.4342837 24.4404574,20.1141679 C24.3681462,20.7940522 24.8957245,21.4003228 25.6188365,21.4683113 C29.6794628,21.9169362 32.8253987,25.0195984 33.1080909,28.8545478 L2.67972157,28.8545478 C2.98913599,25.0307292 6.12145083,21.9415008 10.168976,21.4683113 C10.8920881,21.4003228 11.4196664,20.7940522 11.3473552,20.1141679 C11.275044,19.4342836 10.630226,18.938244 9.90711395,19.0062324 C9.81109787,19.0062324 0,20.0567194 0,30.0773803 C0,30.7572645 0.58619815,31.3084197 1.30931021,31.3084197 L34.4785023,31.3084197 C35.2016144,31.3084197 35.7878125,30.7572645 35.7878125,30.0773803 C35.7878125,20.0567194 25.9767146,19.0062324 25.8806986,19.0062324 Z" id="Shape"></path>
                </g>
            </g>
        </g>
    </g>
</svg>